<svg id="visual" viewBox="0 0 960 300" width="960" height="300" xmlns="http://www.w3.org/2000/svg" xmlns:xlink="http://www.w3.org/1999/xlink" version="1.1"><rect x="0" y="0" width="960" height="300" fill="#ffffff"></rect><path d="M0 207L10.7 216C21.3 225 42.7 243 64 246.5C85.3 250 106.7 239 128 233.8C149.3 228.7 170.7 229.3 192 229.7C213.3 230 234.7 230 256 232.3C277.3 234.7 298.7 239.3 320 233.8C341.3 228.3 362.7 212.7 384 204.2C405.3 195.7 426.7 194.3 448 204.7C469.3 215 490.7 237 512 236.7C533.3 236.3 554.7 213.7 576 209C597.3 204.3 618.7 217.7 640 225.3C661.3 233 682.7 235 704 238.5C725.3 242 746.7 247 768 243C789.3 239 810.7 226 832 218.2C853.3 210.3 874.7 207.7 896 208.2C917.3 208.7 938.7 212.3 949.3 214.2L960 216L960 301L949.3 301C938.7 301 917.3 301 896 301C874.7 301 853.3 301 832 301C810.7 301 789.3 301 768 301C746.7 301 725.3 301 704 301C682.7 301 661.3 301 640 301C618.7 301 597.3 301 576 301C554.7 301 533.3 301 512 301C490.7 301 469.3 301 448 301C426.7 301 405.3 301 384 301C362.7 301 341.3 301 320 301C298.7 301 277.3 301 256 301C234.7 301 213.3 301 192 301C170.7 301 149.3 301 128 301C106.7 301 85.3 301 64 301C42.7 301 21.3 301 10.7 301L0 301Z" fill="#30638E" stroke-linecap="round" stroke-linejoin="miter"></path></svg>