<svg id="visual" viewBox="0 0 960 300" width="960" height="300" xmlns="http://www.w3.org/2000/svg" xmlns:xlink="http://www.w3.org/1999/xlink" version="1.1"><rect x="0" y="0" width="960" height="300" fill="#ffffff"></rect><path d="M0 91L10.7 82C21.3 73 42.7 55 64 51.5C85.3 48 106.7 59 128 64.2C149.3 69.3 170.7 68.7 192 68.3C213.3 68 234.7 68 256 65.7C277.3 63.3 298.7 58.7 320 64.2C341.3 69.7 362.7 85.3 384 93.8C405.3 102.3 426.7 103.7 448 93.3C469.3 83 490.7 61 512 61.3C533.3 61.7 554.7 84.3 576 89C597.3 93.7 618.7 80.3 640 72.7C661.3 65 682.7 63 704 59.5C725.3 56 746.7 51 768 55C789.3 59 810.7 72 832 79.8C853.3 87.7 874.7 90.3 896 89.8C917.3 89.3 938.7 85.7 949.3 83.8L960 82L960 0L949.3 0C938.7 0 917.3 0 896 0C874.7 0 853.3 0 832 0C810.7 0 789.3 0 768 0C746.7 0 725.3 0 704 0C682.7 0 661.3 0 640 0C618.7 0 597.3 0 576 0C554.7 0 533.3 0 512 0C490.7 0 469.3 0 448 0C426.7 0 405.3 0 384 0C362.7 0 341.3 0 320 0C298.7 0 277.3 0 256 0C234.7 0 213.3 0 192 0C170.7 0 149.3 0 128 0C106.7 0 85.3 0 64 0C42.7 0 21.3 0 10.7 0L0 0Z" fill="#00798C" stroke-linecap="round" stroke-linejoin="miter"></path></svg>