<svg id="visual" viewBox="0 0 960 300" width="960" height="300" xmlns="http://www.w3.org/2000/svg" xmlns:xlink="http://www.w3.org/1999/xlink" version="1.1"><rect x="0" y="0" width="960" height="300" fill="#313452"></rect><path d="M0 60L22.8 68.2C45.7 76.3 91.3 92.7 137 93.2C182.7 93.7 228.3 78.3 274 67.3C319.7 56.3 365.3 49.7 411.2 49.8C457 50 503 57 548.8 58C594.7 59 640.3 54 686 52.8C731.7 51.7 777.3 54.3 823 59.2C868.7 64 914.3 71 937.2 74.5L960 78L960 0L937.2 0C914.3 0 868.7 0 823 0C777.3 0 731.7 0 686 0C640.3 0 594.7 0 548.8 0C503 0 457 0 411.2 0C365.3 0 319.7 0 274 0C228.3 0 182.7 0 137 0C91.3 0 45.7 0 22.8 0L0 0Z" fill="#001122" stroke-linecap="round" stroke-linejoin="miter"></path></svg>