<svg id="visual" viewBox="0 0 960 300" width="960" height="300" xmlns="http://www.w3.org/2000/svg" xmlns:xlink="http://www.w3.org/1999/xlink" version="1.1"><rect x="0" y="0" width="960" height="300" fill="#313452"></rect><path d="M0 238L22.8 229.8C45.7 221.7 91.3 205.3 137 204.8C182.7 204.3 228.3 219.7 274 230.7C319.7 241.7 365.3 248.3 411.2 248.2C457 248 503 241 548.8 240C594.7 239 640.3 244 686 245.2C731.7 246.3 777.3 243.7 823 238.8C868.7 234 914.3 227 937.2 223.5L960 220L960 301L937.2 301C914.3 301 868.7 301 823 301C777.3 301 731.7 301 686 301C640.3 301 594.7 301 548.8 301C503 301 457 301 411.2 301C365.3 301 319.7 301 274 301C228.3 301 182.7 301 137 301C91.3 301 45.7 301 22.8 301L0 301Z" fill="#001122" stroke-linecap="round" stroke-linejoin="miter"></path></svg>