<svg id="visual" viewBox="0 0 960 300" width="960" height="300" xmlns="http://www.w3.org/2000/svg" xmlns:xlink="http://www.w3.org/1999/xlink" version="1.1"><rect x="0" y="0" width="960" height="300" fill="#313452"></rect><path d="M0 224L22.8 225C45.7 226 91.3 228 137 233C182.7 238 228.3 246 274 246C319.7 246 365.3 238 411.2 232.7C457 227.3 503 224.7 548.8 227.7C594.7 230.7 640.3 239.3 686 242C731.7 244.7 777.3 241.3 823 231.3C868.7 221.3 914.3 204.7 937.2 196.3L960 188L960 301L937.2 301C914.3 301 868.7 301 823 301C777.3 301 731.7 301 686 301C640.3 301 594.7 301 548.8 301C503 301 457 301 411.2 301C365.3 301 319.7 301 274 301C228.3 301 182.7 301 137 301C91.3 301 45.7 301 22.8 301L0 301Z" fill="#00798C" stroke-linecap="round" stroke-linejoin="miter"></path></svg>