<svg id="visual" viewBox="0 0 960 300" 
width="960" height="300" 
xmlns="http://www.w3.org/2000/svg" 
xmlns:xlink="http://www.w3.org/1999/xlink" 
version="1.1"><rect 
x="0" y="0" width="960" height="300" 
fill="#313452"></rect><path 
d="M0 109L40 106C80 103 160 97 240 99.2C320 101.3 400 111.7 480 114.8C560 118 640 114 720 107C800 100 880 90 920 85L960 80L960 0L920 0C880 0 800 0 720 0C640 0 560 0 480 0C400 0 320 0 240 0C160 0 80 0 40 0L0 0Z" fill="#edae49"></path><path d="M0 100L40 96.7C80 93.3 160 86.7 240 87.5C320 88.3 400 96.7 480 94.8C560 93 640 81 720 74.2C800 67.3 880 65.7 920 64.8L960 64L960 0L920 0C880 0 800 0 720 0C640 0 560 0 480 0C400 0 320 0 240 0C160 0 80 0 40 0L0 0Z" fill="#f88767"></path><path d="M0 78L40 78.2C80 78.3 160 78.7 240 77C320 75.3 400 71.7 480 69.2C560 66.7 640 65.3 720 64.8C800 64.3 880 64.7 920 64.8L960 65L960 0L920 0C880 0 800 0 720 0C640 0 560 0 480 0C400 0 320 0 240 0C160 0 80 0 40 0L0 0Z" fill="#e3708a"></path><path d="M0 37L40 39.8C80 42.7 160 48.3 240 51.2C320 54 400 54 480 52.3C560 50.7 640 47.3 720 48C800 48.7 880 53.3 920 55.7L960 58L960 0L920 0C880 0 800 0 720 0C640 0 560 0 480 0C400 0 320 0 240 0C160 0 80 0 40 0L0 0Z" fill="#b26aa3"></path><path d="M0 49L40 45.7C80 42.3 160 35.7 240 34.5C320 33.3 400 37.7 480 39C560 40.3 640 38.7 720 37.5C800 36.3 880 35.7 920 35.3L960 35L960 0L920 0C880 0 800 0 720 0C640 0 560 0 480 0C400 0 320 0 240 0C160 0 80 0 40 0L0 0Z" fill="#7169a4"></path><path d="M0 23L40 21C80 19 160 15 240 16C320 17 400 23 480 26.3C560 29.7 640 30.3 720 27.3C800 24.3 880 17.7 920 14.3L960 11L960 0L920 0C880 0 800 0 720 0C640 0 560 0 480 0C400 0 320 0 240 0C160 0 80 0 40 0L0 0Z" 
fill="#30638e"></path></svg>