<svg id="visual" viewBox="0 0 960 300" width="960" height="300" xmlns="http://www.w3.org/2000/svg" xmlns:xlink="http://www.w3.org/1999/xlink" version="1.1"><path d="M0 79L14.5 81C29 83 58 87 87.2 91C116.3 95 145.7 99 174.8 93.5C204 88 233 73 262 65C291 57 320 56 349 62.5C378 69 407 83 436.2 92C465.3 101 494.7 105 523.8 101C553 97 582 85 611 77.5C640 70 669 67 698 65.5C727 64 756 64 785.2 62.5C814.3 61 843.7 58 872.8 54.5C902 51 931 47 945.5 45L960 43L960 0L945.5 0C931 0 902 0 872.8 0C843.7 0 814.3 0 785.2 0C756 0 727 0 698 0C669 0 640 0 611 0C582 0 553 0 523.8 0C494.7 0 465.3 0 436.2 0C407 0 378 0 349 0C320 0 291 0 262 0C233 0 204 0 174.8 0C145.7 0 116.3 0 87.2 0C58 0 29 0 14.5 0L0 0Z" fill="#003664"></path><path d="M0 229L14.5 218C29 207 58 185 87.2 180.5C116.3 176 145.7 189 174.8 187C204 185 233 168 262 162.5C291 157 320 163 349 167.5C378 172 407 175 436.2 183C465.3 191 494.7 204 523.8 198C553 192 582 167 611 154C640 141 669 140 698 142.5C727 145 756 151 785.2 158C814.3 165 843.7 173 872.8 164.5C902 156 931 131 945.5 118.5L960 106L960 41L945.5 43C931 45 902 49 872.8 52.5C843.7 56 814.3 59 785.2 60.5C756 62 727 62 698 63.5C669 65 640 68 611 75.5C582 83 553 95 523.8 99C494.7 103 465.3 99 436.2 90C407 81 378 67 349 60.5C320 54 291 55 262 63C233 71 204 86 174.8 91.5C145.7 97 116.3 93 87.2 89C58 85 29 81 14.5 79L0 77Z" fill="#001122"></path><path d="M0 301L14.5 301C29 301 58 301 87.2 301C116.3 301 145.7 301 174.8 301C204 301 233 301 262 301C291 301 320 301 349 301C378 301 407 301 436.2 301C465.3 301 494.7 301 523.8 301C553 301 582 301 611 301C640 301 669 301 698 301C727 301 756 301 785.2 301C814.3 301 843.7 301 872.8 301C902 301 931 301 945.5 301L960 301L960 104L945.5 116.5C931 129 902 154 872.8 162.5C843.7 171 814.3 163 785.2 156C756 149 727 143 698 140.5C669 138 640 139 611 152C582 165 553 190 523.8 196C494.7 202 465.3 189 436.2 181C407 173 378 170 349 165.5C320 161 291 155 262 160.5C233 166 204 183 174.8 185C145.7 187 116.3 174 87.2 178.5C58 183 29 205 14.5 216L0 227Z" fill="#000d1b"></path></svg>